<mxfile host="app.diagrams.net" agent="Mozilla/5.0 (Windows NT 10.0; Win64; x64) AppleWebKit/537.36 (KHTML, like Gecko) Chrome/136.0.0.0 Safari/537.36" version="26.2.14">
  <diagram name="Page-1" id="5Kp46fMgUeZbmNno-zZ7">
    <mxGraphModel dx="2053" dy="620" grid="1" gridSize="10" guides="1" tooltips="1" connect="1" arrows="1" fold="1" page="1" pageScale="1" pageWidth="827" pageHeight="1169" math="0" shadow="0">
      <root>
        <mxCell id="0" />
        <mxCell id="1" parent="0" />
        <mxCell id="-AvTme-DkXZKLkKL9U4E-1" value="Map" style="ellipse;whiteSpace=wrap;html=1;" parent="1" vertex="1">
          <mxGeometry x="130" y="60" width="84" height="60" as="geometry" />
        </mxCell>
        <mxCell id="-AvTme-DkXZKLkKL9U4E-5" value="End point" style="ellipse;whiteSpace=wrap;html=1;" parent="1" vertex="1">
          <mxGeometry x="-100" y="180" width="84" height="60" as="geometry" />
        </mxCell>
        <mxCell id="-AvTme-DkXZKLkKL9U4E-6" value="Obstacle" style="ellipse;whiteSpace=wrap;html=1;" parent="1" vertex="1">
          <mxGeometry x="214" y="180" width="84" height="60" as="geometry" />
        </mxCell>
        <mxCell id="-AvTme-DkXZKLkKL9U4E-7" value="" style="endArrow=classic;html=1;rounded=0;exitX=0.5;exitY=1;exitDx=0;exitDy=0;entryX=0.5;entryY=0;entryDx=0;entryDy=0;" parent="1" source="-AvTme-DkXZKLkKL9U4E-1" target="-AvTme-DkXZKLkKL9U4E-5" edge="1">
          <mxGeometry width="50" height="50" relative="1" as="geometry">
            <mxPoint x="250" y="320" as="sourcePoint" />
            <mxPoint x="300" y="270" as="targetPoint" />
          </mxGeometry>
        </mxCell>
        <mxCell id="-AvTme-DkXZKLkKL9U4E-8" value="" style="endArrow=classic;html=1;rounded=0;exitX=0.5;exitY=1;exitDx=0;exitDy=0;entryX=0.5;entryY=0;entryDx=0;entryDy=0;" parent="1" source="-AvTme-DkXZKLkKL9U4E-1" target="-AvTme-DkXZKLkKL9U4E-6" edge="1">
          <mxGeometry width="50" height="50" relative="1" as="geometry">
            <mxPoint x="180" y="350" as="sourcePoint" />
            <mxPoint x="230" y="300" as="targetPoint" />
          </mxGeometry>
        </mxCell>
        <mxCell id="-AvTme-DkXZKLkKL9U4E-9" value="Character" style="ellipse;whiteSpace=wrap;html=1;" parent="1" vertex="1">
          <mxGeometry x="560" y="60" width="84" height="60" as="geometry" />
        </mxCell>
        <mxCell id="-AvTme-DkXZKLkKL9U4E-10" value="Upper body (head)" style="ellipse;whiteSpace=wrap;html=1;" parent="1" vertex="1">
          <mxGeometry x="476" y="170" width="84" height="60" as="geometry" />
        </mxCell>
        <mxCell id="-AvTme-DkXZKLkKL9U4E-11" value="Lower body(skateboard)" style="ellipse;whiteSpace=wrap;html=1;" parent="1" vertex="1">
          <mxGeometry x="644" y="160" width="126" height="80" as="geometry" />
        </mxCell>
        <mxCell id="-AvTme-DkXZKLkKL9U4E-12" value="" style="endArrow=classic;html=1;rounded=0;exitX=0.5;exitY=1;exitDx=0;exitDy=0;entryX=0.5;entryY=0;entryDx=0;entryDy=0;" parent="1" source="-AvTme-DkXZKLkKL9U4E-9" target="-AvTme-DkXZKLkKL9U4E-10" edge="1">
          <mxGeometry width="50" height="50" relative="1" as="geometry">
            <mxPoint x="450" y="320" as="sourcePoint" />
            <mxPoint x="500" y="270" as="targetPoint" />
          </mxGeometry>
        </mxCell>
        <mxCell id="-AvTme-DkXZKLkKL9U4E-13" value="" style="endArrow=classic;html=1;rounded=0;exitX=0.5;exitY=1;exitDx=0;exitDy=0;entryX=0.5;entryY=0;entryDx=0;entryDy=0;" parent="1" source="-AvTme-DkXZKLkKL9U4E-9" target="-AvTme-DkXZKLkKL9U4E-11" edge="1">
          <mxGeometry width="50" height="50" relative="1" as="geometry">
            <mxPoint x="450" y="340" as="sourcePoint" />
            <mxPoint x="500" y="290" as="targetPoint" />
          </mxGeometry>
        </mxCell>
        <mxCell id="-AvTme-DkXZKLkKL9U4E-14" value="Ground" style="ellipse;whiteSpace=wrap;html=1;" parent="1" vertex="1">
          <mxGeometry x="56" y="180" width="84" height="60" as="geometry" />
        </mxCell>
        <mxCell id="-AvTme-DkXZKLkKL9U4E-15" value="" style="endArrow=classic;html=1;rounded=0;entryX=0.5;entryY=0;entryDx=0;entryDy=0;" parent="1" target="-AvTme-DkXZKLkKL9U4E-14" edge="1">
          <mxGeometry width="50" height="50" relative="1" as="geometry">
            <mxPoint x="170" y="120" as="sourcePoint" />
            <mxPoint x="250" y="280" as="targetPoint" />
          </mxGeometry>
        </mxCell>
        <mxCell id="-AvTme-DkXZKLkKL9U4E-16" value="" style="endArrow=classic;startArrow=classic;html=1;rounded=0;exitX=1;exitY=1;exitDx=0;exitDy=0;" parent="1" source="-AvTme-DkXZKLkKL9U4E-14" edge="1">
          <mxGeometry width="50" height="50" relative="1" as="geometry">
            <mxPoint x="220" y="380" as="sourcePoint" />
            <mxPoint x="518" y="230" as="targetPoint" />
            <Array as="points">
              <mxPoint x="130" y="280" />
              <mxPoint x="520" y="280" />
            </Array>
          </mxGeometry>
        </mxCell>
        <mxCell id="-AvTme-DkXZKLkKL9U4E-17" value="Collision" style="text;html=1;align=center;verticalAlign=middle;whiteSpace=wrap;rounded=0;" parent="1" vertex="1">
          <mxGeometry x="280" y="280" width="60" height="30" as="geometry" />
        </mxCell>
        <mxCell id="-AvTme-DkXZKLkKL9U4E-19" value="" style="endArrow=classic;startArrow=classic;html=1;rounded=0;exitX=1;exitY=0.5;exitDx=0;exitDy=0;entryX=0;entryY=0.5;entryDx=0;entryDy=0;" parent="1" source="-AvTme-DkXZKLkKL9U4E-6" target="-AvTme-DkXZKLkKL9U4E-10" edge="1">
          <mxGeometry width="50" height="50" relative="1" as="geometry">
            <mxPoint x="570" y="410" as="sourcePoint" />
            <mxPoint x="620" y="360" as="targetPoint" />
          </mxGeometry>
        </mxCell>
        <mxCell id="-AvTme-DkXZKLkKL9U4E-20" value="Collision" style="text;html=1;align=center;verticalAlign=middle;whiteSpace=wrap;rounded=0;" parent="1" vertex="1">
          <mxGeometry x="354" y="170" width="60" height="30" as="geometry" />
        </mxCell>
        <mxCell id="-AvTme-DkXZKLkKL9U4E-23" value="" style="endArrow=classic;startArrow=classic;html=1;rounded=0;exitX=0.5;exitY=1;exitDx=0;exitDy=0;entryX=1;entryY=1;entryDx=0;entryDy=0;" parent="1" source="-AvTme-DkXZKLkKL9U4E-6" target="-AvTme-DkXZKLkKL9U4E-11" edge="1">
          <mxGeometry width="50" height="50" relative="1" as="geometry">
            <mxPoint x="320" y="420" as="sourcePoint" />
            <mxPoint x="370" y="370" as="targetPoint" />
            <Array as="points">
              <mxPoint x="256" y="360" />
              <mxPoint x="752" y="360" />
            </Array>
          </mxGeometry>
        </mxCell>
        <mxCell id="-AvTme-DkXZKLkKL9U4E-24" value="Collision" style="text;html=1;align=center;verticalAlign=middle;whiteSpace=wrap;rounded=0;" parent="1" vertex="1">
          <mxGeometry x="450" y="370" width="60" height="30" as="geometry" />
        </mxCell>
        <mxCell id="-AvTme-DkXZKLkKL9U4E-27" value="" style="endArrow=classic;startArrow=classic;html=1;rounded=0;exitX=0;exitY=1;exitDx=0;exitDy=0;entryX=0.5;entryY=1;entryDx=0;entryDy=0;" parent="1" source="-AvTme-DkXZKLkKL9U4E-14" target="-AvTme-DkXZKLkKL9U4E-11" edge="1">
          <mxGeometry width="50" height="50" relative="1" as="geometry">
            <mxPoint x="80" y="400" as="sourcePoint" />
            <mxPoint x="620" y="340" as="targetPoint" />
            <Array as="points">
              <mxPoint x="68" y="330" />
              <mxPoint x="707" y="330" />
            </Array>
          </mxGeometry>
        </mxCell>
        <mxCell id="-AvTme-DkXZKLkKL9U4E-28" value="Collision" style="text;html=1;align=center;verticalAlign=middle;whiteSpace=wrap;rounded=0;" parent="1" vertex="1">
          <mxGeometry x="440" y="300" width="60" height="30" as="geometry" />
        </mxCell>
        <mxCell id="-AvTme-DkXZKLkKL9U4E-31" value="" style="endArrow=classic;startArrow=classic;html=1;rounded=0;exitX=0;exitY=0.5;exitDx=0;exitDy=0;entryX=0.5;entryY=0;entryDx=0;entryDy=0;" parent="1" source="-AvTme-DkXZKLkKL9U4E-5" target="-AvTme-DkXZKLkKL9U4E-9" edge="1">
          <mxGeometry width="50" height="50" relative="1" as="geometry">
            <mxPoint x="-30" y="370" as="sourcePoint" />
            <mxPoint x="20" y="320" as="targetPoint" />
            <Array as="points">
              <mxPoint x="-150" y="210" />
              <mxPoint x="-150" y="10" />
              <mxPoint x="602" y="10" />
            </Array>
          </mxGeometry>
        </mxCell>
        <mxCell id="-AvTme-DkXZKLkKL9U4E-32" value="Trigger" style="text;html=1;align=center;verticalAlign=middle;whiteSpace=wrap;rounded=0;" parent="1" vertex="1">
          <mxGeometry x="142" y="10" width="60" height="30" as="geometry" />
        </mxCell>
        <mxCell id="-AvTme-DkXZKLkKL9U4E-35" value="Sound" style="ellipse;whiteSpace=wrap;html=1;" parent="1" vertex="1">
          <mxGeometry x="238" y="430" width="84" height="60" as="geometry" />
        </mxCell>
        <mxCell id="-AvTme-DkXZKLkKL9U4E-36" value="&quot;Bonk&quot; - Obstacles vs Lower body(skateboard)" style="ellipse;whiteSpace=wrap;html=1;" parent="1" vertex="1">
          <mxGeometry x="116" y="560" width="124" height="100" as="geometry" />
        </mxCell>
        <mxCell id="-AvTme-DkXZKLkKL9U4E-37" value="&quot;Complete&quot; - End point vs Character" style="ellipse;whiteSpace=wrap;html=1;" parent="1" vertex="1">
          <mxGeometry x="530" y="560" width="124" height="100" as="geometry" />
        </mxCell>
        <mxCell id="-AvTme-DkXZKLkKL9U4E-38" value="&quot;Bonk&quot; - Obstacles vs Upper body (head)" style="ellipse;whiteSpace=wrap;html=1;" parent="1" vertex="1">
          <mxGeometry x="-90" y="560" width="124" height="100" as="geometry" />
        </mxCell>
        <mxCell id="-AvTme-DkXZKLkKL9U4E-39" value="&quot;Bonk&quot; - Ground vs Upper body (head)" style="ellipse;whiteSpace=wrap;html=1;" parent="1" vertex="1">
          <mxGeometry x="322" y="560" width="124" height="100" as="geometry" />
        </mxCell>
        <mxCell id="-AvTme-DkXZKLkKL9U4E-40" value="" style="endArrow=classic;html=1;rounded=0;exitX=0.5;exitY=1;exitDx=0;exitDy=0;entryX=0.5;entryY=0;entryDx=0;entryDy=0;" parent="1" source="-AvTme-DkXZKLkKL9U4E-35" target="-AvTme-DkXZKLkKL9U4E-38" edge="1">
          <mxGeometry width="50" height="50" relative="1" as="geometry">
            <mxPoint x="180" y="740" as="sourcePoint" />
            <mxPoint x="230" y="690" as="targetPoint" />
          </mxGeometry>
        </mxCell>
        <mxCell id="-AvTme-DkXZKLkKL9U4E-41" value="" style="endArrow=classic;html=1;rounded=0;exitX=0.5;exitY=1;exitDx=0;exitDy=0;entryX=0.5;entryY=0;entryDx=0;entryDy=0;" parent="1" source="-AvTme-DkXZKLkKL9U4E-35" target="-AvTme-DkXZKLkKL9U4E-36" edge="1">
          <mxGeometry width="50" height="50" relative="1" as="geometry">
            <mxPoint x="220" y="730" as="sourcePoint" />
            <mxPoint x="270" y="680" as="targetPoint" />
          </mxGeometry>
        </mxCell>
        <mxCell id="-AvTme-DkXZKLkKL9U4E-42" value="" style="endArrow=classic;html=1;rounded=0;exitX=0.5;exitY=1;exitDx=0;exitDy=0;entryX=0.5;entryY=0;entryDx=0;entryDy=0;" parent="1" source="-AvTme-DkXZKLkKL9U4E-35" target="-AvTme-DkXZKLkKL9U4E-39" edge="1">
          <mxGeometry width="50" height="50" relative="1" as="geometry">
            <mxPoint x="330" y="780" as="sourcePoint" />
            <mxPoint x="380" y="730" as="targetPoint" />
          </mxGeometry>
        </mxCell>
        <mxCell id="-AvTme-DkXZKLkKL9U4E-43" value="" style="endArrow=classic;html=1;rounded=0;exitX=0.5;exitY=1;exitDx=0;exitDy=0;" parent="1" source="-AvTme-DkXZKLkKL9U4E-35" edge="1">
          <mxGeometry width="50" height="50" relative="1" as="geometry">
            <mxPoint x="380" y="760" as="sourcePoint" />
            <mxPoint x="592" y="560" as="targetPoint" />
          </mxGeometry>
        </mxCell>
      </root>
    </mxGraphModel>
  </diagram>
</mxfile>
